<svg xmlns="http://www.w3.org/2000/svg" viewBox="0 0 1093.58 296.91"><defs><style>.cls-1{opacity:0.6;}.cls-2{fill:#fff;}.cls-3{opacity:0.9;}</style></defs><g id="Layer_2" data-name="Layer 2"><g id="Layer_1-2" data-name="Layer 1"><path d="M140.32,168.21c1.21-4.64,2.31-9.38,3.38-14,2-8.54,4.05-17.38,6.84-25.81.25-.76.52-1.52.79-2.28,1.86-5.24,4-11.18.38-17.73a9.48,9.48,0,0,1,0-1.39c0-.39.05-.77.06-1.16a70.94,70.94,0,0,0-1.16-11.7c-.73-4.73-1.42-9.19-.9-13.67a6.59,6.59,0,0,0-1.45-4.5c-2.39-3.05-2.17-5.59.85-10.07l.81-1.19c3.68-5.37,7.85-11.47,6.84-19.52-.52-4.09-.63-8.36-.74-12.48a105.34,105.34,0,0,0-1.3-16.49l-.13-.71c-.92-5.1-2.18-12.08-10.87-14A62.35,62.35,0,0,0,129.81,0c-2,0-4.13.09-6.27.26-3,.23-7.33,1.06-10.2,5.67-.73,1.15-2.47,1.89-5.21,2.19-1.09.12-2.19.2-3.3.29a43.78,43.78,0,0,0-9.52,1.47A64.94,64.94,0,0,1,76,13.19c-1.53,0-3.06-.08-4.55-.22a16.48,16.48,0,0,0-1.87-.1,35,35,0,0,0-9,1.53c-3,.79-6,1.78-8.88,2.73-5.75,1.9-11.18,3.7-17,4.13-4.52.34-10.54,2.39-13.88,7.16a26.82,26.82,0,0,1-8.6,7.65c-.48.29-1,.56-1.48.84-2.4,1.33-5.4,3-6.83,6.64A48.46,48.46,0,0,0,.25,60.06c-.08,4.4,0,9.47,2.62,14.09A28.77,28.77,0,0,1,5.81,95a68.52,68.52,0,0,1-2.3,7.63c-1.36,4-2.77,8.06-3.08,12.42-.86,11.85-1,27.34,5.3,42.07a40.25,40.25,0,0,0,3.37,6,32.14,32.14,0,0,1,3.14,5.65C22.3,195.13,26.67,217.45,26,239a40.69,40.69,0,0,0,.81,10.18c2.38,10.63,5,21,11.1,30.63,7.08,11.25,16.34,16.81,28.32,17,2.34,0,4.69.05,7,.05H79l5.73,0,.42,0,11.35,0q4.13,0,8.25,0c8.93-.09,15.64-2.86,20.51-8.49a29.71,29.71,0,0,1,5.41-4.81,17.72,17.72,0,0,0,6-6.57,281.94,281.94,0,0,0,14.45-34.82c1.14-3.47,2.32-8.69-.66-14a13.47,13.47,0,0,1-1.45-7.14c.16-6.84-.13-15.73-3.82-23.81-1.88-4.12-2.27-8.58-2.69-13.3s-.81-9.33-2.67-14c0-.3.19-.85.28-1.19ZM113.82,23.6c1.69-10.29,9.43-12.81,17.37-15.26,4-1.24,9.84,3.11,12.16,6.65,3.89,5.92,2.77,12.64,4.12,18.93.65,3,2.51,5.88,1.67,8.76-.07,7.82-4.95,15.38-11.65,17.2-3.86,1-7.94-.29-11.57-1.91a33.74,33.74,0,0,1-7.49-4.83c-3-2.4-6.37-4.52-4.73-9.64.75-2.33,0-5.3-.63-7.86C112.09,31.47,113.15,27.69,113.82,23.6Zm-28,18.13c1.44-5.59,2.64-11.25,3.94-16.87a7.44,7.44,0,0,1,5.95-5.94c8.41-1.92,11.93.11,13.82,8.92a86,86,0,0,1,1.61,15.79c.13,4.68-1.71,6.3-6.32,6.41a13.18,13.18,0,0,0-5.34,1,12.39,12.39,0,0,1-5.32,1.14A8.3,8.3,0,0,1,85.82,41.73ZM56.17,31.39c1.58-4,4.79-6.83,6.83-10.47.57-1,2-.92,2.71-.67,4,1.29,8.3,1.74,11.37,5.47,2.23,2.7,3.29,5.2,2.5,8.57a14,14,0,0,0-.44,4.44c.76,7.71-4.27,12-9.7,15.51-6.16,4-14.22-2.05-14.19-11.93C55,39.71,54.52,35.58,56.17,31.39ZM41.33,28.47c2.41.44,6,7.13,5.87,11.06-.13,1.66-.47,3.4.61,4.84,3.21,4.26.44,8.51-.09,12.69-.31,2.52-7.36,5-9.23,3.32-5.71-5.17-11-10.74-11.56-19.08C26.53,35.42,35.52,27.42,41.33,28.47ZM9.06,51.92c.24-3.34,2.73-4.74,7.36-4.79,5.66-.08,7.49,4.81,9.82,8.41,2.9,4.49,3.15,10,3.48,15.29A4.45,4.45,0,0,1,27.47,75c-1.93,1.28-3.83,2.59-5.74,3.9C19,80.74,17.07,80.1,15.1,77.39,9.5,69.7,8.44,61,9.06,51.92ZM133.45,191.23c2.44,7,2.6,14.27,4.5,21.25,2.31,8.48,1.25,17.37,3.24,25.91,1.33,5.73-2.21,10.3-4.5,15-2.93,6.07-7.38,11.3-8.9,18.18-.93,4.22-5.05,6.24-8.83,7.38-7.1,2.13-13.9,5.11-21,7.23-5.66,1.68-11.07.74-16.29,1.76-5.2-.85-10.42,1.23-15.19-1.51-8.31-4.78-17.75-7.92-22.15-17.88-1.78-4-4.56-7.8-7-11.58a14.31,14.31,0,0,1-2.33-8.3c0-5.29-1.23-10.39-2.18-15.57-.89-4.91-1.92-10.19-.12-15.57,1.35-4-.55-8.51-1.11-12.74-1.24-9.4-4.62-18.27-7.28-27.34-3.49-11.92-8.81-22.89-14-34a13.64,13.64,0,0,1-1-5.34c-.42-9.16-.77-18.61,1.16-27.32,1.66-7.51,4-15.8,10.36-21.61,1.58-1.43,2.48-3.72,4.18-4.92,11-7.79,19.78-18.83,33.11-23.38.61-.21,1.3-.94,1.74-.8,9.45,3.16,18.63-1.71,28-.85,3.31.31,6.64.05,9.66,1.85a7.25,7.25,0,0,0,5.34.71c4.5-1,8.88.6,13.34.34,2.62-.15,4.7,1.38,6.85,2.69,3.23,2,5.94,4.87,9.94,5.53a2,2,0,0,1,1.65,2.22c-.84,6.87,4.46,11.64,5.95,17.63,2.2,8.89,4.56,17.69,1,27.14-3.79,10.13-6.47,20.67-9.07,31.23-2.08,8.44-2.46,16.92-3.29,25.45C128.68,180.41,131.59,185.86,133.45,191.23Z"/><g class="cls-1"><path class="cls-2" d="M132.59,148.6c2.6-10.56,5.28-21.1,9.07-31.23,3.54-9.45,1.18-18.25-1-27.14-1.49-6-6.79-10.76-5.95-17.63A2,2,0,0,0,133,70.38c-4-.66-6.71-3.57-9.94-5.53-2.15-1.31-4.23-2.84-6.85-2.69-4.46.26-8.84-1.35-13.34-.34a7.25,7.25,0,0,1-5.34-.71c-3-1.8-6.35-1.54-9.66-1.85-9.38-.86-18.56,4-28,.85-.44-.14-1.13.59-1.74.8C44.83,65.46,36.08,76.5,25.05,84.29c-1.7,1.2-2.6,3.49-4.18,4.92-6.38,5.81-8.7,14.1-10.36,21.61C8.58,119.53,8.93,129,9.35,138.14a13.64,13.64,0,0,0,1,5.34c5.15,11.12,10.47,22.09,14,34,2.66,9.07,6,17.94,7.28,27.34.56,4.23,2.46,8.7,1.11,12.74-1.8,5.38-.77,10.66.12,15.57.95,5.18,2.15,10.28,2.18,15.57a14.31,14.31,0,0,0,2.33,8.3c2.45,3.78,5.23,7.53,7,11.58,4.4,10,13.84,13.1,22.15,17.88,4.77,2.74,10,.66,15.19,1.51,5.22-1,10.63-.08,16.29-1.76,7.14-2.12,13.94-5.1,21-7.23,3.78-1.14,7.9-3.16,8.83-7.38,1.52-6.88,6-12.11,8.9-18.18,2.29-4.74,5.83-9.31,4.5-15-2-8.54-.93-17.43-3.24-25.91-1.9-7-2.06-14.22-4.5-21.25-1.86-5.37-4.77-10.82-4.15-17.18C130.13,165.52,130.51,157,132.59,148.6Zm-30,28.74c-.14-.13-.29-.28-.44-.44-.28.64-.6,1.23-.9,1.82a11.91,11.91,0,0,0-1.44,3.64c-.31,2.08.19,3.45,3.7,4.27,2.85.66,5.66,1.79,6.95,5.54a5.64,5.64,0,0,0,2.13,2.32c4.12,2.73,6.85,6.53,9.5,10.2,1.21,1.67,2.34,3.25,3.61,4.74,1.42,1.69,1.88,4.65,1.19,7.56a8.74,8.74,0,0,1-4.84,6.23c-7.15,3-13.3,4.42-19.35,4.42h-1.12c-1.7,0-6.22-.17-8.09-4.33s1.34-7,3.25-8.65c.47-.41.94-.86,1.49-1.38-1.43-.83-2.87-1.62-4.29-2.4-7.54-4.15-15.31-8.43-19.81-16.73a18.76,18.76,0,0,0-.14,2.19,18.51,18.51,0,0,1-.14,2.1c-.13.94-.3,1.87-.47,2.78a23.33,23.33,0,0,0-.61,5.95,4.46,4.46,0,0,1-.81,3.38c-3.09,3.57-4.55,8.07-5.68,12-.57,2-2.09,4.36-6.13,4.36h-.42A43.09,43.09,0,0,1,44,223.74c-5.89-2.56-8.81-7.32-8.22-13.4.13-1.33.47-4.86,4.7-4.86h.19a13.71,13.71,0,0,0,1.66-.13l.55-.07c2.56-.26,4-.72,4.54-1.41s.46-2,0-4c-1.51-6.92-.23-13.19,1.33-18.15a12.61,12.61,0,0,1-4.39,1.06c-4.43,0-5.4-4.67-6.1-8.08-1.86-9-.74-10.37,4.86-15.13.82-.7,1.77-1.51,2.83-2.45a13.82,13.82,0,0,1,2.59-1.74,13.14,13.14,0,0,0,1.68-1.06c5-3.87,5.2-4.56,3.43-10.66a13,13,0,0,1-.59-5.21,15,15,0,0,0-2.52-10c-4.43-7.21-2.63-14.63-1-21.18.17-.69.33-1.37.49-2,.71-3.06,3.66-5,7.71-5,.35,0,.7,0,1,0,8.23.73,16.84,2,23.76,8.68.68.66,1.79,1,3.58,1,.66,0,1.34,0,2-.09q.5,0,1,0c9.18,0,20.91,7.81,24.14,16.06a140.89,140.89,0,0,1,7,21.63c.08.37.16.74.23,1.13.56,2.94.92,3.91,3.14,4,3,.16,3.17,3.69,3.23,4.85s.14,2.55.21,3.82c.21,3.51.42,7.14.39,10.74,0,4.86-4.14,9.9-9.16,11.23a34.45,34.45,0,0,1-8.92.84,6.45,6.45,0,0,1-5-1.79,5.11,5.11,0,0,1-1.18-4.08C103.18,178,103.18,177.92,102.59,177.34Z"/></g><g class="cls-1"><path class="cls-2" d="M29.72,70.83A4.45,4.45,0,0,1,27.47,75c-1.93,1.28-3.83,2.59-5.74,3.9C19,80.74,17.07,80.1,15.1,77.39,9.5,69.7,8.44,61,9.06,51.92c.24-3.34,2.73-4.74,7.36-4.79,5.66-.08,7.49,4.81,9.82,8.41C29.14,60,29.39,65.53,29.72,70.83Z"/></g><g class="cls-1"><path class="cls-2" d="M47.72,57.06c-.31,2.52-7.36,5-9.23,3.32-5.71-5.17-11-10.74-11.56-19.08-.4-5.88,8.59-13.88,14.4-12.83,2.41.44,6,7.13,5.87,11.06-.13,1.66-.47,3.4.61,4.84C51,48.63,48.25,52.88,47.72,57.06Z"/></g><g class="cls-1"><path class="cls-2" d="M79.58,34.29a14,14,0,0,0-.44,4.44c.76,7.71-4.27,12-9.7,15.51-6.16,4-14.22-2.05-14.19-11.93-.23-2.6-.73-6.73.92-10.92,1.58-4,4.79-6.83,6.83-10.47.57-1,2-.92,2.71-.67,4,1.29,8.3,1.74,11.37,5.47C79.31,28.42,80.37,30.92,79.58,34.29Z"/></g><g class="cls-1"><path class="cls-2" d="M104.82,50a13.18,13.18,0,0,0-5.34,1,12.39,12.39,0,0,1-5.32,1.14,8.3,8.3,0,0,1-8.34-10.49c1.44-5.59,2.64-11.25,3.94-16.87a7.44,7.44,0,0,1,5.95-5.94c8.41-1.92,11.93.11,13.82,8.92a86,86,0,0,1,1.61,15.79C111.27,48.31,109.43,49.93,104.82,50Z"/></g><g class="cls-1"><path class="cls-2" d="M149.14,42.68c-.07,7.82-4.95,15.38-11.65,17.2-3.86,1-7.94-.29-11.57-1.91a33.74,33.74,0,0,1-7.49-4.83c-3-2.4-6.37-4.52-4.73-9.64.75-2.33,0-5.3-.63-7.86-1-4.17.08-7.95.75-12,1.69-10.29,9.43-12.81,17.37-15.26,4-1.24,9.84,3.11,12.16,6.65,3.89,5.92,2.77,12.64,4.12,18.93C148.12,36.92,150,39.8,149.14,42.68Z"/></g><path d="M122.09,204.69c-2.65-3.67-5.38-7.47-9.5-10.2a5.64,5.64,0,0,1-2.13-2.32c-1.29-3.75-4.1-4.88-6.95-5.54-3.51-.82-4-2.19-3.7-4.27a11.91,11.91,0,0,1,1.44-3.64c.3-.59.62-1.18.9-1.82.15.16.3.31.44.44.59.58.59.63.57.85a5.11,5.11,0,0,0,1.18,4.08,6.45,6.45,0,0,0,5,1.79,34.45,34.45,0,0,0,8.92-.84c5-1.33,9.12-6.37,9.16-11.23,0-3.6-.18-7.23-.39-10.74-.07-1.27-.15-2.55-.21-3.82s-.24-4.69-3.23-4.85c-2.22-.11-2.58-1.08-3.14-4-.07-.39-.15-.76-.23-1.13a140.89,140.89,0,0,0-7-21.63c-3.23-8.25-15-16.06-24.14-16.06q-.53,0-1,0c-.65,0-1.33.09-2,.09-1.79,0-2.9-.3-3.58-1-6.92-6.67-15.53-8-23.76-8.68-.34,0-.69,0-1,0-4,0-7,1.91-7.71,5-.16.68-.32,1.36-.49,2-1.58,6.55-3.38,14,1,21.18a15,15,0,0,1,2.52,10,13,13,0,0,0,.59,5.21c1.77,6.1,1.54,6.79-3.43,10.66a13.14,13.14,0,0,1-1.68,1.06A13.82,13.82,0,0,0,46,157.09c-1.06.94-2,1.75-2.83,2.45-5.6,4.76-6.72,6.08-4.86,15.13.7,3.41,1.67,8.08,6.1,8.08a12.61,12.61,0,0,0,4.39-1.06c-1.56,5-2.84,11.23-1.33,18.15.44,2,.43,3.4,0,4s-2,1.15-4.54,1.41l-.55.07a13.71,13.71,0,0,1-1.66.13H40.5c-4.23,0-4.57,3.53-4.7,4.86-.59,6.08,2.33,10.84,8.22,13.4a43.09,43.09,0,0,0,15.71,3.16h.42c4,0,5.56-2.37,6.13-4.36,1.13-3.94,2.59-8.44,5.68-12a4.46,4.46,0,0,0,.81-3.38,23.33,23.33,0,0,1,.61-5.95c.17-.91.34-1.84.47-2.78a18.51,18.51,0,0,0,.14-2.1,18.76,18.76,0,0,1,.14-2.19c4.5,8.3,12.27,12.58,19.81,16.73,1.42.78,2.86,1.57,4.29,2.4-.55.52-1,1-1.49,1.38-1.91,1.67-5.11,4.45-3.25,8.65s6.39,4.28,8.09,4.33h1.12c6,0,12.2-1.4,19.35-4.42a8.74,8.74,0,0,0,4.84-6.23c.69-2.91.23-5.87-1.19-7.56C124.43,207.94,123.3,206.36,122.09,204.69Zm.62,11.32c-1,2.61-3.21,2.75-5.7,3-4.49.36-13.21,3.31-14.34,2.11-.8-.93.76-1.93.82-2,7.17-4.64,6.94-8.29-.77-12.51-4.36-2.39-11.62-6.15-15.88-8.07-5.2-2.34-6.1-5.89-7.49-12-1-4.49-2.56-6.09-6-3a23,23,0,0,1-5.43,3.7,4.51,4.51,0,0,0-2.26,2.52,12.82,12.82,0,0,0-.31,6.21c.78,4.9-.21,8.91-3.43,12.41-1.87,2-2.2,4.31-2.3,6.87-.1,2.71-.81,5-4.43,4-1.78-.5-3.48.52-5.37.4-4.46-.3-7.25-2.42-9.12-6.29,1.3-1.9,2.71-.33,4-.17,7.06.86,11-1.54,11-8.65,0-1.33,0-8.17-.13-9.49-.68-7-.08-9.61,3.32-13.31C60.44,180,62.56,177,64.84,175a71.2,71.2,0,0,0,6.72-6A6.78,6.78,0,0,0,73,162.37c-1.21-4.63-2.92-5.51-7.13-3.12-6,3.37-11.75,4.73-13.84,10.15-.48,1.26-1.49,1.18-2.72,1a2.93,2.93,0,0,0-2.73,1.16c-1.74,2.37-3.54,5.36-3.65,2.67a6.7,6.7,0,0,1,1.06-3.81,62.89,62.89,0,0,1,8.05-10,22.16,22.16,0,0,1,3-2.58c5.7-4.21,7.63-9.37,4-15.89-2.36-4.25,3.6-12.19.16-13.45-3.62-1.32-4.93-4.58-4.49-9.22.17-1.76-1.39-4.31-1.29-6.21.15-2.62-.63-5.64,2.23-7.17,3.14-1.68,6.45-1.07,9.5.64a16.16,16.16,0,0,1,4.11,2.78c3.5,3.82,8.47,5.08,12.67,7.65,2,1.23,4.34.92,6.35.56,6.77-1.2,11.54,2.25,14.84,7.11a97.35,97.35,0,0,1,14.69,34.58c.59,2.76,1,5.57,1.65,8.3.87,3.44-.09,5.84-3.3,7.54a.53.53,0,0,1-.74-.33c-.61-2.27,1.47-5.14-3.5-5.65-1.44-.15.15-2.29.42-3.11,1.17-3.53-.17-6.49-3-8.89a19.66,19.66,0,0,1-6-10.13,8.9,8.9,0,0,0-2.49-4.2,3.18,3.18,0,0,0-3.62-.92c-1.46.58-1.43,2.43-1.07,3.65,2.48,8.62.6,6.58,3.6,18.1.58,2.2-1.15,5.69-2.2,6.67-5.21,4.85-3.23,8.5-5.49,14.42-1.43,3.76-.46,5.92,4.06,6.68,6,1,9.81,4.82,12.14,11,1.31,3.49,5.06,5.06,8.33,6.54,1.16.53,2.45.72,3.41,1.73C121.5,212.14,123.67,213.41,122.71,216Z"/><g class="cls-3"><path class="cls-2" d="M122.71,216c-1,2.61-3.21,2.75-5.7,3-4.49.36-13.21,3.31-14.34,2.11-.8-.93.76-1.93.82-2,7.17-4.64,6.94-8.29-.77-12.51-4.36-2.39-11.62-6.15-15.88-8.07-5.2-2.34-6.1-5.89-7.49-12-1-4.49-2.56-6.09-6-3a23,23,0,0,1-5.43,3.7,4.51,4.51,0,0,0-2.26,2.52,12.82,12.82,0,0,0-.31,6.21c.78,4.9-.21,8.91-3.43,12.41-1.87,2-2.2,4.31-2.3,6.87-.1,2.71-.81,5-4.43,4-1.78-.5-3.48.52-5.37.4-4.46-.3-7.25-2.42-9.12-6.29,1.3-1.9,2.71-.33,4-.17,7.06.86,11-1.54,11-8.65,0-1.33,0-8.17-.13-9.49-.68-7-.08-9.61,3.32-13.31C60.44,180,62.56,177,64.84,175a71.2,71.2,0,0,0,6.72-6A6.78,6.78,0,0,0,73,162.37c-1.21-4.63-2.92-5.51-7.13-3.12-6,3.37-11.75,4.73-13.84,10.15-.48,1.26-1.49,1.18-2.72,1a2.93,2.93,0,0,0-2.73,1.16c-1.74,2.37-3.54,5.36-3.65,2.67a6.7,6.7,0,0,1,1.06-3.81,62.89,62.89,0,0,1,8.05-10,22.16,22.16,0,0,1,3-2.58c5.7-4.21,7.63-9.37,4-15.89-2.36-4.25,3.6-12.19.16-13.45-3.62-1.32-4.93-4.58-4.49-9.22.17-1.76-1.39-4.31-1.29-6.21.15-2.62-.63-5.64,2.23-7.17,3.14-1.68,6.45-1.07,9.5.64a16.16,16.16,0,0,1,4.11,2.78c3.5,3.82,8.47,5.08,12.67,7.65,2,1.23,4.34.92,6.35.56,6.77-1.2,11.54,2.25,14.84,7.11a97.35,97.35,0,0,1,14.69,34.58c.59,2.76,1,5.57,1.65,8.3.87,3.44-.09,5.84-3.3,7.54a.53.53,0,0,1-.74-.33c-.61-2.27,1.47-5.14-3.5-5.65-1.44-.15.15-2.29.42-3.11,1.17-3.53-.17-6.49-3-8.89a19.66,19.66,0,0,1-6-10.13,8.9,8.9,0,0,0-2.49-4.2,3.18,3.18,0,0,0-3.62-.92c-1.46.58-1.43,2.43-1.07,3.65,2.48,8.62.6,6.58,3.6,18.1.58,2.2-1.15,5.69-2.2,6.67-5.21,4.85-3.23,8.5-5.49,14.42-1.43,3.76-.46,5.92,4.06,6.68,6,1,9.81,4.82,12.14,11,1.31,3.49,5.06,5.06,8.33,6.54,1.16.53,2.45.72,3.41,1.73C121.5,212.14,123.67,213.41,122.71,216Z"/></g><path class="cls-2" d="M270.29,133.14H254.78l-18.27-53-18.28,53H202.72L175.07,51.57h19.09l16.78,54.84L229.1,51.34h15.27l18.17,55.07,16.77-54.84h18.63Z"/><path class="cls-2" d="M357.06,107.68H313.91c1.74,8,7.29,12.15,15.16,12.15,5.9,0,10.18-1.85,15-6.36l10.06,8.91c-5.78,7.17-14.11,11.57-25.34,11.57-18.62,0-32.39-13.08-32.39-32v-.23c0-17.7,12.61-32.28,30.66-32.28,20.71,0,30.19,16.08,30.19,33.67v.23C357.29,105,357.18,106.07,357.06,107.68Zm-30-24.17c-7.29,0-12,5.2-13.42,13.18h26.49C339.13,88.83,334.5,83.51,327.1,83.51Z"/><path class="cls-2" d="M389.81,133.72a43.48,43.48,0,0,1-26.61-9.37l7.52-11.57c6.71,4.86,13.77,7.4,19.55,7.4,5.09,0,7.4-1.85,7.4-4.63v-.23c0-3.82-6-5.09-12.84-7.17-8.67-2.55-18.51-6.6-18.51-18.63v-.23c0-12.61,10.18-19.67,22.68-19.67a42.88,42.88,0,0,1,23.14,7.18l-6.71,12.14c-6.14-3.58-12.27-5.78-16.78-5.78-4.28,0-6.48,1.85-6.48,4.28v.23c0,3.47,5.9,5.09,12.61,7.4,8.68,2.9,18.74,7.06,18.74,18.4v.23C413.52,127.47,403.23,133.72,389.81,133.72Z"/><path class="cls-2" d="M443.61,133.6c-10.76,0-18.05-4.28-18.05-18.63V85.59h-7.4v-15h7.4V54.7h17.59V70.55h14.57v15H443.15v26.49c0,4,1.73,6,5.66,6a17.86,17.86,0,0,0,8.68-2.2V130A25.89,25.89,0,0,1,443.61,133.6Z"/><path class="cls-2" d="M544.15,133.14H528.41L495.67,51.57h19.67l21.17,57,21.17-57h19.21Z"/><path class="cls-2" d="M583.26,63.72V48.1h18.51V63.72Zm.46,68.84v-62H601.3v62Z"/><path class="cls-2" d="M652,87.79c-11.69,0-18.86,7-18.86,21.86v22.91H615.53v-62h17.59V83c3.59-8.56,9.37-14.11,19.78-13.65v18.4Z"/><path class="cls-2" d="M688.19,151.3a58.81,58.81,0,0,1-27.42-6.48l6-13.19a40.41,40.41,0,0,0,20.94,5.67c12,0,17.7-5.78,17.7-16.89v-3c-5.21,6.25-10.88,10.07-20.25,10.07-14.46,0-27.53-10.53-27.53-28.92v-.24c0-18.51,13.3-28.92,27.53-28.92,9.61,0,15.28,4,20,9.26v-8.1h17.58v48C722.78,141.93,711.21,151.3,688.19,151.3Zm17.24-53c0-8.44-6.59-14.34-15.16-14.34s-15,5.9-15,14.34v.24c0,8.56,6.48,14.34,15,14.34s15.16-5.9,15.16-14.34Z"/><path class="cls-2" d="M736.55,63.72V48.1h18.52V63.72Zm.47,68.84v-62H754.6v62Z"/><path class="cls-2" d="M808.05,132.56V98c0-8.33-3.93-12.61-10.64-12.61s-11,4.28-11,12.61v34.59H768.83v-62h17.59v8.79c4.05-5.21,9.25-10,18.16-10,13.31,0,21.06,8.79,21.06,23v40.15Z"/><path class="cls-2" d="M838.94,63.72V48.1h18.52V63.72Zm.47,68.84v-62H857v62Z"/><path class="cls-2" d="M907.55,132.56v-6.71c-4.28,4.74-10.18,7.87-18.74,7.87-11.69,0-21.29-6.71-21.29-19v-.23c0-13.54,10.3-19.78,25-19.78a44.2,44.2,0,0,1,15.16,2.54v-1c0-7.29-4.52-11.34-13.31-11.34a45.66,45.66,0,0,0-17.12,3.36l-4.4-13.42a54.71,54.71,0,0,1,24.07-5c19.2,0,27.65,10,27.65,26.73v36Zm.35-25a27.24,27.24,0,0,0-11.22-2.31c-7.52,0-12.15,3-12.15,8.56v.23c0,4.74,3.93,7.52,9.6,7.52,8.21,0,13.77-4.51,13.77-10.88Z"/><path class="cls-2" d="M219.85,259.83H181.32v-81h37.6c16.54,0,26.72,8.22,26.72,20.94V200c0,9.14-4.85,14.23-10.64,17.47,9.37,3.59,15.16,9,15.16,19.9v.23C250.16,252.42,238.12,259.83,219.85,259.83Zm8.09-57c0-5.32-4.16-8.33-11.68-8.33H198.67v17.12H215.1c7.87,0,12.84-2.54,12.84-8.56Zm4.52,32.39c0-5.43-4.05-8.79-13.19-8.79h-20.6v17.82h21.18c7.86,0,12.61-2.78,12.61-8.79Z"/><path class="cls-2" d="M261,191V175.37h18.52V191Zm.47,68.84v-62h17.58v62Z"/><path class="cls-2" d="M321.08,278.57a58.78,58.78,0,0,1-27.42-6.48l6-13.19a40.41,40.41,0,0,0,20.94,5.67c12,0,17.7-5.78,17.7-16.89v-3c-5.21,6.25-10.88,10.07-20.25,10.07-14.46,0-27.53-10.53-27.53-28.93v-.23c0-18.51,13.3-28.92,27.53-28.92,9.6,0,15.27,4.05,20,9.26v-8.1h17.58v48C355.67,269.2,344.1,278.57,321.08,278.57Zm17.24-53c0-8.44-6.6-14.34-15.16-14.34s-15,5.9-15,14.34v.23c0,8.57,6.48,14.35,15,14.35s15.16-5.9,15.16-14.35Z"/><path class="cls-2" d="M395.82,189.37c-4.05,0-6.36,2.08-6.36,6.71v2.43h14.23v14.35h-14v47H372.1v-47h-7.29V198.39h7.29v-3.93c0-13.65,6.83-19.9,19.21-19.9a38.92,38.92,0,0,1,12.49,1.74v14.58A22.13,22.13,0,0,0,395.82,189.37Z"/><path class="cls-2" d="M440.25,261.22c-19.21,0-33.44-14.23-33.44-32.05v-.23c0-17.82,14.35-32.28,33.67-32.28s33.43,14.23,33.43,32.05v.23C473.91,246.75,459.57,261.22,440.25,261.22Zm16.31-32.28c0-9.14-6.59-17.13-16.31-17.13-10.07,0-16.08,7.76-16.08,16.9v.23c0,9.14,6.59,17.12,16.31,17.12,10.06,0,16.08-7.75,16.08-16.89Z"/><path class="cls-2" d="M514.76,261.22c-19.21,0-33.44-14.23-33.44-32.05v-.23c0-17.82,14.35-32.28,33.67-32.28s33.43,14.23,33.43,32.05v.23C548.42,246.75,534.08,261.22,514.76,261.22Zm16.31-32.28c0-9.14-6.6-17.13-16.31-17.13-10.07,0-16.09,7.76-16.09,16.9v.23c0,9.14,6.6,17.12,16.32,17.12,10.06,0,16.08-7.75,16.08-16.89Z"/><path class="cls-2" d="M579.78,260.87c-10.76,0-18-4.28-18-18.63V212.86h-7.41v-15h7.41V182h17.58v15.85h14.58v15H579.31v26.49c0,4.05,1.74,6,5.67,6a17.89,17.89,0,0,0,8.68-2.2v14.11A25.89,25.89,0,0,1,579.78,260.87Z"/><path class="cls-2" d="M702.07,259.83V207l-22.8,34.59h-.46L656.25,207.3v52.53H638.78v-81H658l21.28,34.25,21.29-34.25h19.21v81Z"/><path class="cls-2" d="M773.8,259.83V251c-4,5.21-9.26,10-18.16,10-13.31,0-21.06-8.79-21.06-23V197.82h17.58v34.59c0,8.33,3.94,12.61,10.65,12.61s11-4.28,11-12.61V197.82h17.58v62Z"/><path class="cls-2" d="M826.56,261A43.42,43.42,0,0,1,800,251.61L807.47,240c6.71,4.86,13.77,7.41,19.55,7.41,5.09,0,7.4-1.85,7.4-4.63v-.23c0-3.82-6-5.09-12.84-7.17-8.67-2.55-18.51-6.6-18.51-18.63v-.23c0-12.61,10.18-19.67,22.68-19.67a43,43,0,0,1,23.14,7.17l-6.71,12.15c-6.14-3.58-12.27-5.78-16.78-5.78-4.28,0-6.48,1.85-6.48,4.28v.23c0,3.47,5.9,5.09,12.61,7.4,8.68,2.9,18.74,7.06,18.74,18.4V241C850.27,254.74,840,261,826.56,261Z"/><path class="cls-2" d="M918.19,235H875c1.73,8,7.28,12.15,15.15,12.15,5.9,0,10.18-1.85,15-6.36l10.07,8.91c-5.79,7.17-14.12,11.57-25.34,11.57-18.63,0-32.39-13.08-32.39-32.05v-.23c0-17.7,12.61-32.28,30.65-32.28,20.71,0,30.2,16.08,30.2,33.67v.23C918.42,232.29,918.3,233.33,918.19,235Zm-30-24.18c-7.28,0-12,5.21-13.42,13.19h26.5C900.26,216.1,895.63,210.77,888.22,210.77Z"/><path class="cls-2" d="M967.94,259.83V251c-4.05,5.21-9.26,10-18.16,10-13.31,0-21.06-8.79-21.06-23V197.82H946.3v34.59c0,8.33,3.94,12.61,10.65,12.61s11-4.28,11-12.61V197.82h17.58v62Z"/><path class="cls-2" d="M1076,259.83V225.24c0-8.33-3.7-12.61-10.3-12.61s-10.64,4.28-10.64,12.61v34.59h-17.59V225.24c0-8.33-3.7-12.61-10.29-12.61s-10.65,4.28-10.65,12.61v34.59H999v-62h17.58v8.79c4.05-5.21,9.37-10,18.28-10,8.1,0,14.23,3.59,17.47,9.83,5.44-6.36,11.92-9.83,20.36-9.83,13.08,0,20.94,7.87,20.94,22.79v40.38Z"/></g></g></svg>